<?xml version="1.0" encoding="UTF-8" standalone="no"?>
<svg viewBox="10 10 120 90" version="1.1" id="svg1" xml:space="preserve"
  xmlns:xlink="http://www.w3.org/1999/xlink" xmlns="http://www.w3.org/2000/svg" xmlns:svg="http://www.w3.org/2000/svg">

  <path style=""
    d="m 48.764623,16.481423 c 1.024084,-0.180412 2.257506,-0.0076 2.988028,0.896305 0.406789,0.503326 0.645269,1.235076 0.580117,2.332015 -0.06376,1.07344 -0.09475,3.762104 0.212389,5.607082 0.371473,2.231458 1.184004,4.372024 1.953982,6.499119 0.601775,1.662429 1.026411,4.062472 2.718586,4.417701 1.163522,0.244252 2.344526,-1.184025 2.846019,-1.826551 0.873647,-1.119339 1.923929,-2.534185 2.803541,-3.653097 0.279204,-0.355162 0.735149,-0.90801 1.146903,-0.722125 0.483729,0.218377 0.333445,1.046792 0.254868,1.571681 -0.240887,1.609104 -0.630106,3.006013 -0.679649,4.715047 -0.02465,0.85038 0.08735,1.96765 0.807083,2.421239 0.676036,0.426052 1.640185,0.0077 2.37876,-0.297344 1.688426,-0.697352 3.033607,-2.071493 4.332745,-3.355753 1.490849,-1.473776 2.542931,-3.336422 3.907967,-4.927436 0.69155,-0.806034 1.242498,-1.812461 2.166371,-2.336284 0.65467,-0.371189 1.506328,-0.737131 2.208853,-0.467257 0.539336,0.207185 1.023717,0.824025 1.019469,1.401771 -0.0057,0.77874 -0.75687,1.391609 -1.401771,1.869027 -1.059339,0.784225 -1.652855,1.101688 -3.058408,2.506194 -1.405553,1.404506 -3.930541,3.753017 -5.05487,6.159296 -0.451416,0.966115 -0.977733,2.148159 -0.594691,3.143364 0.185134,0.481009 0.723338,0.850558 1.231861,0.934514 0.883552,0.145873 1.70197,-0.557949 2.548673,-0.849559 0.639387,-0.220209 1.236208,-0.715438 1.911506,-0.679646 0.392099,0.02078 0.859259,0.173446 1.061947,0.509736 0.190177,0.315533 0.168163,0.802169 -0.04248,1.104424 -0.656999,0.942736 -2.480979,0.409309 -3.185842,1.316815 -0.368494,0.474433 -0.473698,1.224619 -0.254868,1.784072 0.285972,0.731105 1.081294,1.239975 1.826551,1.486726 2.152728,0.712757 4.541447,-0.05826 6.796463,-0.297344 1.942123,-0.205908 4.178398,-0.620793 5.776992,-0.976993 1.598594,-0.356201 2.888746,-0.823076 3.823012,-1.061947 0.934266,-0.238871 1.670889,-0.533309 2.463718,-0.297344 0.443088,0.131873 1.018457,0.431788 1.061947,0.892034 0.04639,0.490955 -0.524321,0.873167 -0.934513,1.146903 -0.700545,0.4675 -1.598008,0.544345 -2.421242,0.722125 -1.229213,0.265453 -2.496107,0.312252 -3.738054,0.509735 -2.657807,0.42262 -5.353993,0.710972 -7.943366,1.444247 -1.199183,0.339592 -2.495943,0.598563 -3.483187,1.359294 -0.818829,0.630957 -1.855454,1.472873 -1.826551,2.506194 0.01688,0.603489 0.625326,1.097734 1.146906,1.401771 1.514339,0.882733 3.433565,0.772184 5.182301,0.892037 1.681962,0.115277 3.375447,-0.02217 5.054869,-0.169913 1.196834,-0.105291 2.366884,-0.488043 3.568145,-0.509733 0.987104,-0.01782 1.844091,0.336178 1.911503,1.061948 0.06975,0.750941 -1.023988,1.212255 -1.741593,1.444246 -2.214495,0.715914 -4.640598,-0.381881 -6.966373,-0.467256 -2.20741,-0.08103 -4.52018,-0.707623 -6.626553,-0.04248 -0.745556,0.235429 -1.804617,0.584789 -1.911504,1.359292 -0.166575,1.207 1.367924,2.053972 2.293805,2.84602 1.788315,1.52982 4.021427,2.45433 6.116818,3.525665 2.460283,1.257897 4.995836,2.371149 7.561064,3.398232 3.554574,1.423204 7.010168,3.012206 10.83186,3.823009 1.11713,0.237009 2.46204,0.300164 3.22832,1.146903 0.35227,0.389258 0.62154,1.064671 0.37695,1.529204 -0.28104,0.533747 -1.09356,0.57698 -1.69376,0.63717 -0.88478,0.08873 -1.78547,-0.157694 -2.63363,-0.424781 -1.800036,-0.566831 -3.389081,-1.661686 -5.097347,-2.463718 -3.028413,-1.421842 -6.028308,-2.91569 -9.132749,-4.162832 -3.423944,-1.375495 -6.865265,-2.776623 -10.44956,-3.6531 -1.347967,-0.329622 -2.768697,-0.908828 -4.120357,-0.59469 -0.317509,0.07379 -0.651221,0.265916 -0.807079,0.552212 -0.257351,0.472729 -0.212766,1.103569 -0.04248,1.614162 0.302931,0.908324 1.057879,1.627256 1.784072,2.251326 1.038938,0.892835 2.578342,1.091922 3.568142,2.03894 0.459817,0.439942 0.942794,0.982414 1.019471,1.614159 0.04856,0.400045 -0.09832,0.860985 -0.382302,1.146903 -0.463844,0.46701 -1.218793,0.739371 -1.869027,0.637169 -0.889614,-0.139827 -1.628897,-0.891606 -2.166374,-1.614159 -0.860315,-1.156559 -1.484991,-2.403775 -2.506194,-3.355755 -0.861875,-0.803452 -1.796549,-1.854417 -2.973454,-1.911504 -0.588239,-0.02853 -1.186691,0.361409 -1.57168,0.80708 -0.430282,0.498103 -0.66437,1.211372 -0.63717,1.869027 0.0849,2.05271 1.553795,3.807587 2.463718,5.649561 0.917926,1.858175 1.90328,3.688623 3.01593,5.437169 0.919905,1.445645 2.456194,3.146338 3.01593,4.162835 0.632748,1.149089 0.971065,2.024589 -0.04248,2.973451 -0.437979,0.355732 -1.050572,0.536933 -1.61416,0.509735 -0.722393,-0.03486 -1.478655,-0.344638 -1.996461,-0.849558 -1.88268,-1.835828 -2.088089,-4.830157 -3.270798,-7.178762 -1.157319,-2.298186 -2.088943,-4.778773 -3.738057,-6.753987 -0.831951,-0.996463 -1.749657,-2.177998 -3.015929,-2.463718 -0.867635,-0.195772 -1.888835,0.0914 -2.591152,0.637169 -0.925336,0.719082 -1.30981,1.9867 -1.656639,3.100885 -0.18844,0.605363 -0.273247,1.340911 -0.7646,1.741593 -0.314227,0.256242 -0.825367,0.43345 -1.189382,0.254868 -0.705026,-0.345879 -0.814359,-1.349911 -1.019468,-2.123895 -0.213535,-0.805783 -0.390204,-1.670666 -0.892038,-2.336284 -0.12786,-0.16959 -0.297552,-0.391696 -0.509733,-0.382299 -1.312175,0.05811 -2.136912,1.587377 -2.930975,2.633628 -1.910288,2.51698 -2.913051,5.383484 -3.950444,8.368146 -0.760387,2.187695 -0.876271,4.758921 -1.699116,6.923898 -0.29513,0.776512 -0.601837,1.624946 -1.231861,2.166371 -0.69004,0.593001 -1.646771,1.096898 -2.548673,0.976992 -0.642894,-0.08547 -1.30163,-0.557249 -1.57168,-1.146902 -0.289855,-0.632897 -0.03709,-1.416793 0.16991,-2.081419 0.480985,-1.544342 1.720058,-2.747683 2.421242,-4.205311 0.738603,-1.535415 1.337156,-3.138837 1.869027,-4.757524 0.686168,-2.088272 1.317909,-4.206878 1.699114,-6.371685 0.25144,-1.42789 0.56297,-2.894186 0.382302,-4.332745 -0.0692,-0.550961 -0.02143,-1.408533 -0.552212,-1.57168 -0.387092,-0.118981 -0.841286,0.340571 -0.976992,0.722122 -0.178286,0.50127 -0.204216,1.373246 -0.63717,1.869029 -0.47899,0.5485 -1.226279,1.190223 -1.953982,1.217281 -0.596466,0.02218 -1.378575,-0.207122 -1.836856,-0.589537 -1.322145,-1.337024 0.393721,-2.207021 0.987297,-3.346329 0.24804,-0.580035 0.700928,-1.38417 0.297347,-1.869028 -0.733952,-0.881762 -2.313127,-0.296491 -3.44071,-0.08496 -2.74477,0.514911 -7.730977,3.228321 -7.730977,3.228321 0,0 -5.463477,2.782458 -8.155756,4.24779 -1.258737,0.685095 -2.359807,1.731196 -3.738054,2.123893 -0.708625,0.201905 -1.561764,0.437372 -2.208851,0.08496 -0.390262,-0.212542 -0.768835,-0.711559 -0.679646,-1.146902 0.144374,-0.704706 1.053909,-1.063282 1.741593,-1.274339 2.14999,-0.659852 4.583737,-1.601755 6.753985,-2.676107 2.60714,-1.290629 5.126259,-2.787691 7.47611,-4.502656 1.702118,-1.242237 4.055018,-2.176168 4.757524,-4.162835 0.2204,-0.623284 0.04748,-1.418204 -0.339823,-1.953982 -0.404505,-0.559581 -1.153539,-0.82268 -1.826549,-0.976992 -1.36743,-0.313534 -2.742999,-0.09941 -4.205311,0.169912 -2.881149,0.530642 -5.832094,1.253196 -8.49558,2.251329 -0.704719,0.264091 -1.556246,0.45841 -2.251328,0.16991 -0.482277,-0.200174 -1.083124,-0.671106 -1.01947,-1.189381 0.08046,-0.655119 0.97185,-0.994941 1.61416,-1.146903 2.861042,-0.676883 6.012868,-0.724373 8.920358,-1.529204 1.244269,-0.34443 2.705185,-0.481431 3.61062,-1.40177 0.486979,-0.494995 0.901952,-1.283289 0.722125,-1.953983 -0.25259,-0.942074 -1.313116,-1.602454 -2.251329,-1.869027 -1.234234,-0.350681 -2.316734,-0.318855 -3.738054,-0.594691 -0.31452,-0.06104 -0.742838,-0.365551 -0.679646,-0.679645 0.06638,-0.329951 0.598521,-0.362732 0.934514,-0.382302 1.984569,-0.115594 3.861657,-0.0463 5.64956,-0.679646 1.103502,-0.390901 2.761748,-0.717636 2.973453,-1.869027 0.208428,-1.133569 -0.73449,-2.207502 -2.081418,-2.761065 -0.70878,-0.291296 -1.664257,-0.393489 -2.038938,-1.061947 -0.201247,-0.35904 -0.194878,-0.930028 0.08496,-1.231858 0.535041,-0.577089 1.610758,-0.644638 2.336284,-0.339823 0.808862,0.339827 1.567328,0.80049 2.421239,0.849556 0.768171,0.04414 1.819564,0.127145 2.251329,-0.509733 0.611332,-0.901748 -0.127937,-2.207974 -0.509733,-3.228321 -0.579639,-1.549079 -1.346007,-2.705745 -2.63363,-4.205312 -1.287623,-1.499567 -5.22478,-4.502658 -5.22478,-4.502658 0,0 -2.388175,-1.415622 -3.185844,-2.506194 -0.3571,-0.488228 -0.75235,-1.105299 -0.637168,-1.699117 0.131673,-0.678838 0.755526,-1.283184 1.401771,-1.529204 0.784764,-0.298753 1.773124,-0.154661 2.506196,0.254868 1.525443,0.852187 2.084457,2.806314 3.185842,4.162835 0.930289,1.145791 1.788434,2.371811 2.888496,3.355752 2.057853,1.840628 4.229341,3.771097 6.838942,4.672568 1.220522,0.421622 2.612517,0.56712 3.865489,0.254868 1.696652,-0.422821 3.494045,-1.30367 4.460179,-2.761062 1.068877,-1.612379 1.002613,-3.803184 0.892035,-5.734515 -0.115849,-2.023396 -0.977708,-3.937767 -1.61416,-5.861951 -0.639118,-1.932243 -2.047142,-3.663273 -2.20885,-5.692038 -0.04832,-0.606268 0.04199,-1.280004 0.382299,-1.784072 0.438913,-0.650117 0.815066,-0.928651 1.571684,-1.061944 z"
    id="path1" />
  <path style=""
    d="m 19.469452,42.030367 c 0.752617,-0.294141 1.969168,-0.480622 2.831443,-0.317075 0.55593,0.105443 1.132141,0.420058 1.444248,0.892038 0.363395,0.549541 0.515556,1.332343 0.297345,1.953982 -0.325253,0.926578 -1.257719,1.624055 -2.166372,1.996461 -0.786535,0.322357 -1.748088,0.370639 -2.548674,0.08496 -0.708802,-0.252927 -1.429263,-0.784193 -1.699116,-1.486725 -0.214745,-0.559065 -0.10638,-1.277066 0.21239,-1.784072 0.393059,-0.625162 0.876119,-1.045428 1.628736,-1.339569 z"
    id="path2" />
  <path style=""
    d="m 59.774051,86.920963 c 0.636477,-0.762548 2.307109,-1.106081 2.795888,-1.03066 0.765571,0.118131 1.587175,0.531704 1.996461,1.189381 0.375257,0.602996 0.39899,1.451626 0.169912,2.123895 -0.26512,0.778041 -0.949284,1.407877 -1.656638,1.826549 -0.576309,0.341109 -1.299787,0.610478 -1.953985,0.467256 -0.783766,-0.171588 -1.605961,-0.737477 -1.892945,-1.486725 -0.373993,-0.97641 -0.128694,-2.286984 0.541307,-3.089696 z"
    id="path3" />
  <path style=""
    d="m 110.73987,75.015962 c 0.50963,-0.2479 0.92167,-0.362097 1.65664,-0.382302 0.68599,-0.01886 1.44613,0.260255 1.91151,0.764604 0.42216,0.457514 0.63874,1.167587 0.55221,1.784069 -0.12228,0.871163 -0.6705,1.7903 -1.44425,2.208853 -0.80951,0.437894 -1.9358,0.407417 -2.76106,0 -0.75167,-0.371083 -1.34973,-1.177626 -1.52921,-1.996461 -0.0964,-0.439555 0.0594,-0.934869 0.29735,-1.316815 0.29815,-0.478621 0.80973,-0.81529 1.31681,-1.061948 z"
    id="path4" />
</svg>